<?xml version="1.0" encoding="utf-8"?>
<!-- Generator: Adobe Illustrator 16.0.0, SVG Export Plug-In . SVG Version: 6.00 Build 0)  -->
<!DOCTYPE svg PUBLIC "-//W3C//DTD SVG 1.1//EN" "http://www.w3.org/Graphics/SVG/1.1/DTD/svg11.dtd">
<svg version="1.1" id="Layer_1" xmlns="http://www.w3.org/2000/svg" xmlns:xlink="http://www.w3.org/1999/xlink" x="0px" y="0px"
	 width="401.98px" height="401.98px" viewBox="0 0 401.98 401.98" enable-background="new 0 0 401.98 401.98" xml:space="preserve">
<path d="M200.985,14.11C98.533,14.11,15.478,97.743,15.478,201c0,103.229,83.055,186.87,185.507,186.87
	c102.472,0,185.517-83.642,185.517-186.87C386.502,97.743,303.457,14.11,200.985,14.11z M200.942,49.271
	c49.8,0,94.009,24.032,121.682,61.084c-31.325,2.423-72.328,10.036-104.489,25.665c-39.504,19.188-66.056,37.816-119.164,24.804
	c16.517-42.264,38.873-82.313,74.33-108.986C182.253,50.22,191.51,49.271,200.942,49.271z M167.822,52.966
	c-29.798,22.4-59.177,58.593-75.725,105.756c-15.372-4.66-22.362-16.707-23.888-31.212C88.94,90.167,124.963,62.53,167.822,52.966z
	 M62.4,262.808c4.613,0.396,9.202,1.273,11.906,2.552c0.207,8.4,1.024,15.854,2.384,22.621
	C71.194,280.109,66.365,271.701,62.4,262.808z M74.322,256.631c-3.852-1.343-9.702-1.791-15.049-1.449
	c-6.204-16.137-9.676-33.549-9.975-51.797c9.356,5.102,20.047,9.371,28.434,12.793C76.394,223.895,74.275,242.779,74.322,256.631z
	 M49.407,194.262c0.879-19.916,5.563-38.791,13.37-55.97c2.804,12.962,11.04,23.918,26.22,29.419
	c-4.393,12.357-8.003,25.81-9.958,39.814C68.814,203.151,58.019,199.03,49.407,194.262z M200.942,352.709
	c-45.451,0-86.179-20.066-114.008-51.727c-3.415-11.488-4.802-22.678-4.509-32.562c46.682,18.726,75.327,61.152,123.752,84.127
	C204.455,352.654,202.676,352.709,200.942,352.709z M217.263,351.834c-47.324-21.494-81.403-68.257-134.204-92.808
	c-1.147-10.826,1.444-32.504,2.473-39.735c23.176,8.027,49.824,15.604,77.063,21.583c74.766,16.462,140.839,14.082,181.793,9.505
	C325.541,304.99,276.547,345.428,217.263,351.834z M339.074,247.895c-77.145,3.421-171.386-7.582-252.838-37.457
	c2.617-16.07,5.589-28.912,9.466-40.193c50.263,12.727,86.668-8.293,114.724-23.483c36.191-19.738,76.779-30.931,113.426-34.669
	c18.113,25.001,28.828,55.662,28.828,88.919c0,16.207-2.623,31.826-7.356,46.479C342.202,247.725,339.999,247.865,339.074,247.895z"
	/>
</svg>
