<?xml version="1.0" encoding="utf-8"?>
<!-- Generator: Adobe Illustrator 16.0.0, SVG Export Plug-In . SVG Version: 6.00 Build 0)  -->
<!DOCTYPE svg PUBLIC "-//W3C//DTD SVG 1.1//EN" "http://www.w3.org/Graphics/SVG/1.1/DTD/svg11.dtd">
<svg version="1.1" id="Layer_1" xmlns="http://www.w3.org/2000/svg" xmlns:xlink="http://www.w3.org/1999/xlink" x="0px" y="0px"
	 width="533.698px" height="473.582px" viewBox="532.604 0 533.698 473.582" enable-background="new 532.604 0 533.698 473.582"
	 xml:space="preserve">
<g>
	<path d="M978.909,199.273c2.182-1.455,4.363-3.637,4.363-6.545c0-0.728,0-0.728,0-1.455l-1.454-70.545
		c0-3.637-3.637-7.273-7.273-7.273h-16L943.272,48c-0.728-3.636-3.636-5.818-7.272-5.818H664c-3.637,0-6.545,2.182-7.272,5.818
		l-15.273,65.455h-15.272c-3.636,0-7.272,2.909-7.272,7.273l-0.728,72c0,2.182,0.728,3.636,2.182,5.091
		c0.728,0.727,0.728,0.727,1.455,0.727l-54.546,229.091c-0.727,4.363,2.182,8.727,7.273,8.727h450.909l0,0
		c5.09,0,8.727-5.817,6.545-10.182L978.909,199.273z M632.728,164.364h26.909v21.818h-26.909V164.364z M718.545,186.182v-21.818
		h29.818v21.818H718.545z M748.363,128v21.091h-29.818V128H748.363z M792.728,128v21.091h-29.818V128H792.728z M881.455,128v21.091
		h-29.818V128H881.455z M837.091,128v21.091h-29.818V128H837.091z M762.909,164.364h29.818v21.818h-29.818V164.364z
		 M807.272,164.364h29.818v21.818h-29.818V164.364z M852.363,186.182v-21.818h29.818v21.818H852.363z M896.728,186.182v-21.818
		h29.817v21.818H896.728z M896.728,149.818v-21.091h29.817v21.091H896.728z M807.272,113.455V95.273h103.272l3.637,18.182
		C889.455,113.455,834.182,113.455,807.272,113.455z M907.637,80.728H692.363l4.364-23.273h206.545L907.637,80.728z M689.455,95.273
		h103.272v18.182c-2.183,0-107.637,0-106.909,0L689.455,95.273z M704,128v21.091h-29.818V128H704z M704,164.364v21.818h-29.818
		v-21.818H704z M669.818,200.728h41.454l0,0h44.364l0,0h37.091v133.091H644.363L669.818,200.728z M641.454,348.363
		c113.455,0,202.909,0,316.364,0l13.818,74.183h-344L641.454,348.363z M807.272,333.818V200.728h37.818l0,0h44.364l0,0h40.727
		l25.455,133.091H807.272z M941.091,186.182v-21.818H968v21.818H941.091z M967.272,149.818h-26.909v-21.091h12.364l0,0h14.545
		V149.818z M943.272,113.455c-0.728,0-15.272,0-14.545,0l-10.909-56h12.363L943.272,113.455z M669.818,57.455h12.363l-10.909,56
		c-0.728,0-16,0-14.545,0L669.818,57.455z M647.272,128h12.364v21.091h-26.909V128H647.272z M635.637,200.728h18.908
		l-41.454,221.818H584L635.637,200.728z M986.909,422.546l-42.182-221.819h18.909L1016,422.546H986.909z"/>
</g>
</svg>
