<?xml version="1.0" encoding="utf-8"?>
<!-- Generator: Adobe Illustrator 16.0.0, SVG Export Plug-In . SVG Version: 6.00 Build 0)  -->
<!DOCTYPE svg PUBLIC "-//W3C//DTD SVG 1.1//EN" "http://www.w3.org/Graphics/SVG/1.1/DTD/svg11.dtd">
<svg version="1.1"
	 id="Layer_1" xmlns:rdf="http://www.w3.org/1999/02/22-rdf-syntax-ns#" xmlns:inkscape="http://www.inkscape.org/namespaces/inkscape" xmlns:dc="http://purl.org/dc/elements/1.1/" xmlns:svg="http://www.w3.org/2000/svg" xmlns:cc="http://creativecommons.org/ns#" xmlns:sodipodi="http://sodipodi.sourceforge.net/DTD/sodipodi-0.dtd"
	 xmlns="http://www.w3.org/2000/svg" xmlns:xlink="http://www.w3.org/1999/xlink" x="0px" y="0px" width="440.979px"
	 height="373.847px" viewBox="0 0 440.979 373.847" enable-background="new 0 0 440.979 373.847" xml:space="preserve">
<g transform="translate(0,-952.36218)">
	<path fill="#FFFFFF" d="M204.979,951.411c-57.086,0-100.8,48.462-100.8,105.56h-14.4c-49.752,0-91.2,40.896-91.2,91.166
		c0,50.271,41.448,91.166,91.2,91.166h81.6c5.304,0.078,9.663-4.156,9.74-9.457c0.078-5.299-4.157-9.658-9.459-9.736
		c-0.094,0-0.188,0-0.281,0h-81.6c-39.225,0-72-32.252-72-71.971c0-39.721,32.775-71.973,72-71.973h24c5.302,0,9.6-4.298,9.6-9.598
		v-9.596c0-47.424,35.346-86.368,81.602-86.368h9.6c34.167,0,58.932,17.683,72.9,47.232c1.574,3.382,4.968,5.546,8.7,5.548h14.398
		c21.321,0,38.4,17.072,38.4,38.386v9.596c0.007,4.022,2.521,7.614,6.3,8.997c27.525,9.84,46.5,36.336,46.5,68.074
		c0,39.721-32.732,71.672-72,71.672h-81.6c-5.304-0.076-9.663,4.156-9.74,9.457c-0.078,5.299,4.157,9.658,9.459,9.736
		c0.094,0.002,0.188,0.002,0.281,0h81.6c49.708,0,91.2-40.596,91.2-90.867c0-36.858-21.306-68.438-52.8-82.769v-3.898
		c0-31.686-25.902-57.579-57.602-57.579h-9.148c-17.34-31.813-48.053-52.78-86.852-52.78L204.979,951.411L204.979,951.411z
		 M208.278,1095.357c-1.919,0.314-3.697,1.203-5.1,2.549l-71.852,67.176c-4.22,3.209-5.038,9.229-1.828,13.448
		c3.211,4.22,9.234,5.036,13.454,1.828c0.52-0.394,0.996-0.841,1.424-1.332l55.802-52.031v179.481
		c-0.075,5.301,4.162,9.658,9.464,9.732c5.302,0.076,9.661-4.16,9.734-9.461c0.003-0.092,0.003-0.182,0-0.271v-179.481l55.95,52.031
		c3.484,3.995,9.55,4.411,13.546,0.927c3.997-3.482,4.412-9.546,0.929-13.541c-0.429-0.49-0.904-0.938-1.425-1.332l-72-67.175
		C214.222,1095.843,211.228,1094.902,208.278,1095.357z"/>
</g>
</svg>
