<?xml version="1.0" encoding="utf-8"?>
<!-- Generator: Adobe Illustrator 16.0.0, SVG Export Plug-In . SVG Version: 6.00 Build 0)  -->
<!DOCTYPE svg PUBLIC "-//W3C//DTD SVG 1.1//EN" "http://www.w3.org/Graphics/SVG/1.1/DTD/svg11.dtd">
<svg version="1.1" id="Layer_1" xmlns="http://www.w3.org/2000/svg" xmlns:xlink="http://www.w3.org/1999/xlink" x="0px" y="0px"
	 width="499.476px" height="499.475px" viewBox="549.103 -9.394 499.476 499.475"
	 enable-background="new 549.103 -9.394 499.476 499.475" xml:space="preserve">
<g>
	<path fill="#000F" d="M799.331,0C931.699,0,1040,106.964,1040,239.332S931.699,480,799.331,480
		C666.964,480,560,371.699,560,239.332S666.964,0,799.331,0z M646.908,389.081c9.359-57.493,50.808-102.953,102.952-121.671
		c-20.057-14.708-34.764-40.112-34.764-66.853c0-46.797,38.774-84.234,84.233-84.234c46.797,0,84.234,37.437,84.234,84.234
		c0,26.741-13.37,52.145-34.764,66.853c53.481,18.718,93.594,64.178,102.952,121.671c37.438-38.774,61.504-90.92,61.504-149.75
		c0-117.66-96.267-212.59-213.928-212.59c-117.66,0-212.59,94.93-212.59,212.59C586.741,298.161,609.471,350.307,646.908,389.081z
		 M927.688,410.474c-2.674-69.525-58.83-124.346-128.355-124.346c-68.188,0-125.682,54.819-127.02,124.346
		c34.764,26.741,78.886,42.785,127.02,42.785S891.588,437.215,927.688,410.474z M799.331,143.064
		c-30.752,0-57.493,25.404-57.493,57.493c0,30.752,26.741,56.156,57.493,56.156c32.09,0,57.493-25.404,57.493-56.156
		C856.824,168.468,831.421,143.064,799.331,143.064z"/>
</g>
</svg>
