<?xml version="1.0" encoding="utf-8"?>
<!-- Generator: Adobe Illustrator 16.0.0, SVG Export Plug-In . SVG Version: 6.00 Build 0)  -->
<!DOCTYPE svg PUBLIC "-//W3C//DTD SVG 1.1//EN" "http://www.w3.org/Graphics/SVG/1.1/DTD/svg11.dtd">
<svg version="1.1"
	 id="Layer_1" xmlns:inkscape="http://www.inkscape.org/namespaces/inkscape" xmlns:sodipodi="http://sodipodi.sourceforge.net/DTD/sodipodi-0.dtd" xmlns:svg="http://www.w3.org/2000/svg" xmlns:rdf="http://www.w3.org/1999/02/22-rdf-syntax-ns#" xmlns:cc="http://creativecommons.org/ns#" xmlns:dc="http://purl.org/dc/elements/1.1/"
	 xmlns="http://www.w3.org/2000/svg" xmlns:xlink="http://www.w3.org/1999/xlink" x="0px" y="0px" width="444px" height="444px"
	 viewBox="578.5 20.5 444 444" enable-background="new 578.5 20.5 444 444" xml:space="preserve">
<g transform="translate(0,-952.36218)">
	<path fill="#000F" d="M800,981.162c116.493,0,211.2,94.658,211.2,211.2c0,116.496-94.704,211.199-211.2,211.199
		c-116.542,0-211.2-94.705-211.2-211.199C588.8,1075.823,683.461,981.162,800,981.162L800,981.162z M800,1000.361
		c-106.166,0-192.003,85.835-192.003,192.001c0,106.115,85.839,192.003,192.003,192.003c106.113,0,192.002-85.89,192.002-192.003
		C992.002,1086.198,906.115,1000.36,800,1000.361L800,1000.361z"/>
	<path fill="#000F" d="M815.23,1086.299c5.302,0.003,9.598,4.303,9.595,9.605c-0.001,2.591-1.05,5.072-2.908,6.878l-89.579,89.58
		l89.579,89.58c3.786,3.712,3.846,9.79,0.133,13.576c-3.712,3.784-9.79,3.845-13.575,0.133c-0.045-0.044-0.09-0.088-0.133-0.133
		l-96.368-96.369c-3.749-3.749-3.749-9.827,0-13.576l96.368-96.368C810.15,1087.347,812.636,1086.298,815.23,1086.299
		L815.23,1086.299z"/>
</g>
</svg>
